# xmcd
#
# Track frame offsets:
#	150
#	16626
#	38793
#	50941
#	71672
#	82011
#	99911
#	119277
#	137212
#	148372
#	166832
#	189801
#	211151
#	223361
#	246163
#
# Disc length: 3471 seconds
#
# Revision: 1
# Processed by: cddbd v1.5.2PL0 Copyright (c) Steve Scherf et al.
# Submitted via: audiograbber 1.83.01
#
DISCID=dc0d8d0f
DTITLE=Various Southern Gospel Artists - Shout! Glory [CD2 of 2)
DYEAR=2003
DGENRE=Southern Gospel
TTITLE0=The Inspirations - We Need To Thank God
TTITLE1=The Booth Brothers - Under God
TTITLE2=The Crabb Family - The Walk
TTITLE3=Gaither Vocal Band - Knowing You'll Be There
TTITLE4=Mark Bishop - Cloud Nine Headed For Ten
TTITLE5=Lordsong - If Not For The Old Rugged Cross
TTITLE6=Crossway - Prayin' For Deliverance
TTITLE7=The Telestials - He Was Thinking Of Me
TTITLE8=Dottie Rambo - I'm Gonna Leave Here Shoutin'
TTITLE9=The Hoskins Family - When The Savior Wipes The Tears From Our Eyes
TTITLE10=The Hoppers - We Are America
TTITLE11=Southern Harmony - Long As I Got King Jesus
TTITLE12=The Carolina Boys Quartet - God Sits On High
TTITLE13=The Martins - The Promise
TTITLE14=Gold City - God Handled It All
EXTD=
EXTT0=
EXTT1=
EXTT2=
EXTT3=
EXTT4=
EXTT5=
EXTT6=
EXTT7=
EXTT8=
EXTT9=
EXTT10=
EXTT11=
EXTT12=
EXTT13=
EXTT14=
PLAYORDER=
